<svg width="172" height="175" xmlns="http://www.w3.org/2000/svg" xmlns:xlink="http://www.w3.org/1999/xlink" overflow="hidden"><defs><clipPath id="clip0"><rect x="111" y="80" width="172" height="175"/></clipPath><linearGradient x1="110.006" y1="81.0057" x2="283.994" y2="252.994" gradientUnits="userSpaceOnUse" spreadMethod="reflect" id="fill1"><stop offset="0" stop-color="#FFDE80"/><stop offset="0.5" stop-color="#FFE8B3"/><stop offset="1" stop-color="#FFF3DA"/></linearGradient><linearGradient x1="283.994" y1="252.994" x2="110.006" y2="81.0058" gradientUnits="userSpaceOnUse" spreadMethod="reflect" id="fill2"><stop offset="0" stop-color="#FFDE80"/><stop offset="0.5" stop-color="#FFE8B3"/><stop offset="1" stop-color="#FFF3DA"/></linearGradient></defs><g clip-path="url(#clip0)" transform="translate(-111 -80)"><path d="M154 80 197 80 170.546 80 170.546 194.454 283 194.454 283 168 283 211 283 254 283 227.545 137.455 227.545 137.455 80 111 80Z" fill="url(#fill1)" fill-rule="evenodd"/><path d="M240 254 197 254 223.454 254 223.454 139.546 111 139.546 111 166 111 123 111 80 111 106.455 256.545 106.455 256.545 254 283 254Z" fill="url(#fill2)" fill-rule="evenodd"/></g></svg>