<svg width="197" height="273" xmlns="http://www.w3.org/2000/svg" xmlns:xlink="http://www.w3.org/1999/xlink" overflow="hidden"><defs><clipPath id="clip0"><rect x="81" y="313" width="197" height="273"/></clipPath><linearGradient x1="242.065" y1="584.668" x2="177.452" y2="349.313" gradientUnits="userSpaceOnUse" spreadMethod="reflect" id="fill1"><stop offset="0" stop-color="#FFDE80"/><stop offset="0.5" stop-color="#FFE8B3"/><stop offset="1" stop-color="#FFF3DA"/></linearGradient><linearGradient x1="240.208" y1="573.526" x2="181.712" y2="360.454" gradientUnits="userSpaceOnUse" spreadMethod="reflect" id="fill2"><stop offset="0" stop-color="#F2F2F2"/><stop offset="0.5" stop-color="#F2F2F2"/><stop offset="1" stop-color="#FFFFFF"/></linearGradient><linearGradient x1="116.164" y1="314.161" x2="180.777" y2="549.515" gradientUnits="userSpaceOnUse" spreadMethod="reflect" id="fill3"><stop offset="0" stop-color="#FFDE80"/><stop offset="0.5" stop-color="#FFE8B3"/><stop offset="1" stop-color="#FFF3DA"/></linearGradient><linearGradient x1="118.334" y1="325.746" x2="176.83" y2="538.818" gradientUnits="userSpaceOnUse" spreadMethod="reflect" id="fill4"><stop offset="0" stop-color="#F2F2F2"/><stop offset="0.5" stop-color="#F2F2F2"/><stop offset="1" stop-color="#FFFFFF"/></linearGradient></defs><g clip-path="url(#clip0)" transform="translate(-81 -313)"><path d="M203.484 563.623 166.347 542.182 198.478 560.733 260.97 452.493 154.565 391.06 136.014 423.191 157.455 386.054 178.896 348.917 160.345 381.048 276.763 448.262 208.49 566.513 240.621 585.064Z" fill="url(#fill1)" fill-rule="evenodd"/><path d="M195.493 548.824 152.086 523.762 188.816 544.969 238.503 458.908 154.103 410.18 132.897 446.911 157.958 403.503 183.02 360.095 161.813 396.826 259.568 453.264 202.171 552.679 238.901 573.885Z" fill="url(#fill2)" fill-rule="evenodd"/><path d="M154.745 335.206 191.882 356.647 159.609 338.014 97.0355 446.395 203.583 507.91 222.216 475.638 200.774 512.775 179.333 549.912 197.966 517.639 81.6902 450.507 149.881 332.397 117.608 313.764Z" fill="url(#fill3)" fill-rule="evenodd"/><path d="M163.049 350.449 206.456 375.51 169.726 354.304 120.039 440.364 204.439 489.093 225.645 452.362 200.584 495.77 175.522 539.177 196.729 502.447 98.9744 446.008 156.372 346.594 119.641 325.387Z" fill="url(#fill4)" fill-rule="evenodd"/></g></svg>