<svg width="224" height="271" xmlns="http://www.w3.org/2000/svg" xmlns:xlink="http://www.w3.org/1999/xlink" overflow="hidden"><defs><clipPath id="clip0"><rect x="507" y="75" width="224" height="271"/></clipPath><linearGradient x1="556.87" y1="76.0876" x2="621.483" y2="311.442" gradientUnits="userSpaceOnUse" spreadMethod="reflect" id="fill1"><stop offset="0" stop-color="#FFDE80"/><stop offset="0.5" stop-color="#FFE8B3"/><stop offset="1" stop-color="#FFF3DA"/></linearGradient><linearGradient x1="680.778" y1="344.618" x2="616.164" y2="109.264" gradientUnits="userSpaceOnUse" spreadMethod="reflect" id="fill2"><stop offset="0" stop-color="#FFDE80"/><stop offset="0.5" stop-color="#FFE8B3"/><stop offset="1" stop-color="#FFF3DA"/></linearGradient></defs><g clip-path="url(#clip0)" transform="translate(-507 -75)"><path d="M595.451 97.1323 632.588 118.574 609.741 105.382 552.609 204.338 649.731 260.412 662.922 237.564 641.48 274.701 620.039 311.839 633.23 288.991 507.529 216.417 581.161 88.8822 558.314 75.6912Z" fill="url(#fill1)" fill-rule="evenodd"/><path d="M642.196 323.573 605.059 302.132 627.907 315.323 685.039 216.367 587.917 160.294 574.726 183.142 596.167 146.004 617.608 108.867 604.417 131.715 730.119 204.288 656.486 331.824 679.334 345.015Z" fill="url(#fill2)" fill-rule="evenodd"/></g></svg>