<svg xmlns="http://www.w3.org/2000/svg" xmlns:xlink="http://www.w3.org/1999/xlink" viewBox="0 0 248.2 248.2"><defs><style>.cls-1{fill:#fff;}.cls-2{mask:url(#mask);}.cls-3{fill:url(#Безымянный_градиент_113);}.cls-4{fill:url(#Безымянный_градиент_114);}.cls-5{fill:#c1a875;}.cls-6{mask:url(#mask-2);}.cls-7{fill:url(#Безымянный_градиент_113-2);}.cls-8{fill:url(#Безымянный_градиент_114-2);}.cls-9{mask:url(#mask-3);}.cls-10{fill:url(#Безымянный_градиент_113-3);}.cls-11{fill:url(#Безымянный_градиент_114-3);}.cls-12{mask:url(#mask-4);}.cls-13{fill:url(#Безымянный_градиент_113-4);}.cls-14{fill:url(#Безымянный_градиент_114-4);}.cls-15{mask:url(#mask-5);}.cls-16{fill:url(#Безымянный_градиент_113-5);}.cls-17{fill:url(#Безымянный_градиент_114-5);}.cls-18{mask:url(#mask-6);}.cls-19{fill:url(#Безымянный_градиент_113-6);}.cls-20{fill:url(#Безымянный_градиент_114-6);}</style><mask id="mask" x="82.99" y="0" width="55.16" height="54.89" maskUnits="userSpaceOnUse"><g id="mask0_211_665" data-name="mask0 211 665"><path class="cls-1" d="M110.31,0,83,27.32l27.58,27.57,27.58-27.57L110.83,0Z"/></g></mask><linearGradient id="Безымянный_градиент_113" x1="84.95" y1="396.76" x2="140.69" y2="400.66" gradientTransform="matrix(1, 0, 0, -1, 0, 426)" gradientUnits="userSpaceOnUse"><stop offset="0" stop-color="#576265"/><stop offset="0.17" stop-color="#44a0a0"/><stop offset="0.46" stop-color="#617c78"/><stop offset="0.67" stop-color="#95a7ac"/><stop offset="0.82" stop-color="#719fab"/><stop offset="0.93" stop-color="#757a7b"/><stop offset="1" stop-color="#576265"/></linearGradient><linearGradient id="Безымянный_градиент_114" x1="109.86" y1="400.4" x2="98.95" y2="429.01" gradientTransform="matrix(1, 0, 0, -1, 0, 426)" gradientUnits="userSpaceOnUse"><stop offset="0" stop-color="#fff" stop-opacity="0"/><stop offset="1" stop-color="#fff"/></linearGradient><mask id="mask-2" x="193.04" y="193.04" width="55.16" height="55.16" maskUnits="userSpaceOnUse"><g id="mask1_211_665" data-name="mask1 211 665"><path class="cls-1" d="M248.2,193,193,248.2H248.2Z"/></g></mask><linearGradient id="Безымянный_градиент_113-2" x1="195" y1="203.59" x2="250.74" y2="207.48" xlink:href="#Безымянный_градиент_113"/><linearGradient id="Безымянный_градиент_114-2" x1="219.91" y1="207.24" x2="208.91" y2="235.95" xlink:href="#Безымянный_градиент_114"/><mask id="mask-3" x="0" y="165.2" width="82.99" height="83" maskUnits="userSpaceOnUse"><g id="mask2_211_665" data-name="mask2 211 665"><path class="cls-1" d="M55.42,165.2,0,220.62V248.2H27.58L83,192.78Z"/></g></mask><linearGradient id="Безымянный_градиент_113-3" x1="2.94" y1="216.61" x2="86.82" y2="222.46" xlink:href="#Безымянный_градиент_113"/><linearGradient id="Безымянный_градиент_114-3" x1="40.43" y1="222.1" x2="23.87" y2="265.3" xlink:href="#Безымянный_градиент_114"/><mask id="mask-4" x="82.73" y="110.05" width="165.47" height="138.15" maskUnits="userSpaceOnUse"><g id="mask3_211_665" data-name="mask3 211 665"><path class="cls-1" d="M220.88,110.05,82.73,248.2h55.16L248.2,137.89v-.53Z"/></g></mask><linearGradient id="Безымянный_градиент_113-4" x1="88.75" y1="240.47" x2="255.63" y2="254.41" xlink:href="#Безымянный_градиент_113"/><linearGradient id="Безымянный_градиент_114-4" x1="163.92" y1="251.72" x2="139.98" y2="326.53" xlink:href="#Безымянный_градиент_114"/><mask id="mask-5" x="0" y="0" width="248.2" height="165.47" maskUnits="userSpaceOnUse"><g id="mask4_211_665" data-name="mask4 211 665"><path class="cls-1" d="M110.57,110.05,83,82.47,55.42,54.89,0,110.31v55.16l83-83L55.42,110.05,83,137.63l27.58,27.57,110.05-110L248.2,82.73V0H165.47L193,27.58Z"/></g></mask><linearGradient id="Безымянный_градиент_113-5" x1="9.48" y1="331.28" x2="258.82" y2="357.36" xlink:href="#Безымянный_градиент_113"/><linearGradient id="Безымянный_градиент_114-5" x1="122.57" y1="349.27" x2="98.88" y2="441.99" xlink:href="#Безымянный_градиент_114"/><mask id="mask-6" x="0" y="0" width="55.15" height="55.16" maskUnits="userSpaceOnUse"><g id="mask5_211_665" data-name="mask5 211 665"><path class="cls-1" d="M0,55.16,55.15,0H0Z"/></g></mask><linearGradient id="Безымянный_градиент_113-6" x1="1.95" y1="396.63" x2="57.69" y2="400.52" xlink:href="#Безымянный_градиент_113"/><linearGradient id="Безымянный_градиент_114-6" x1="26.86" y1="400.28" x2="15.86" y2="428.99" xlink:href="#Безымянный_градиент_114"/></defs><g id="Слой_2" data-name="Слой 2"><g id="Слой_1-2" data-name="Слой 1"><g class="cls-2"><path class="cls-3" d="M138.15,0H83V54.89h55.16Z"/><path class="cls-4" d="M138.15,0H83V54.89h55.16Z"/><path class="cls-5" d="M138.15,0H83V54.89h55.16Z"/></g><g class="cls-6"><path class="cls-7" d="M248.2,193H193V248.2H248.2Z"/><path class="cls-8" d="M248.2,193H193V248.2H248.2Z"/><path class="cls-5" d="M248.2,193H193V248.2H248.2Z"/></g><g class="cls-9"><path class="cls-10" d="M83,165.2H0v83H83Z"/><path class="cls-11" d="M83,165.2H0v83H83Z"/><path class="cls-5" d="M83,165.2H0v83H83Z"/></g><g class="cls-12"><path class="cls-13" d="M248.2,110.05H82.73V248.2H248.2Z"/><path class="cls-14" d="M248.2,110.05H82.73V248.2H248.2Z"/><path class="cls-5" d="M248.2,110.05H82.73V248.2H248.2Z"/></g><g class="cls-15"><path class="cls-16" d="M248.2,0H0V165.47H248.2Z"/><path class="cls-17" d="M248.2,0H0V165.47H248.2Z"/><path class="cls-5" d="M248.2,0H0V165.47H248.2Z"/></g><g class="cls-18"><path class="cls-19" d="M55.15,0H0V55.16H55.15Z"/><path class="cls-20" d="M55.15,0H0V55.16H55.15Z"/><path class="cls-5" d="M55.15,0H0V55.16H55.15Z"/></g></g></g></svg>